<mxfile host="app.diagrams.net" agent="Mozilla/5.0 (Windows NT 10.0; Win64; x64) AppleWebKit/537.36 (KHTML, like Gecko) Chrome/134.0.0.0 Safari/537.36" version="26.0.6">
  <diagram name="Página-1" id="taQ4jbFh67wg9944kw0_">
    <mxGraphModel dx="1434" dy="746" grid="1" gridSize="10" guides="1" tooltips="1" connect="1" arrows="1" fold="1" page="1" pageScale="1" pageWidth="827" pageHeight="1169" math="0" shadow="0">
      <root>
        <mxCell id="0" />
        <mxCell id="1" parent="0" />
        <mxCell id="XUkEBKdvpBKk0kElfREn-2" value="Pagina de inicio" style="rounded=0;whiteSpace=wrap;html=1;" vertex="1" parent="1">
          <mxGeometry y="200" width="120" height="80" as="geometry" />
        </mxCell>
        <mxCell id="XUkEBKdvpBKk0kElfREn-4" value="El usuario&lt;br&gt;hace una búsqueda" style="shape=trapezoid;perimeter=trapezoidPerimeter;whiteSpace=wrap;html=1;fixedSize=1;" vertex="1" parent="1">
          <mxGeometry x="200" y="200" width="140" height="80" as="geometry" />
        </mxCell>
        <mxCell id="XUkEBKdvpBKk0kElfREn-5" value="El usuario selecciona la ventana Filtros" style="shape=trapezoid;perimeter=trapezoidPerimeter;whiteSpace=wrap;html=1;fixedSize=1;" vertex="1" parent="1">
          <mxGeometry y="400" width="160" height="80" as="geometry" />
        </mxCell>
        <mxCell id="XUkEBKdvpBKk0kElfREn-6" value="" style="endArrow=classic;html=1;rounded=0;exitX=1;exitY=0.5;exitDx=0;exitDy=0;entryX=0;entryY=0.5;entryDx=0;entryDy=0;" edge="1" parent="1" source="XUkEBKdvpBKk0kElfREn-2" target="XUkEBKdvpBKk0kElfREn-4">
          <mxGeometry width="50" height="50" relative="1" as="geometry">
            <mxPoint x="390" y="300" as="sourcePoint" />
            <mxPoint x="440" y="250" as="targetPoint" />
          </mxGeometry>
        </mxCell>
        <mxCell id="XUkEBKdvpBKk0kElfREn-7" value="" style="endArrow=classic;html=1;rounded=0;exitX=0.5;exitY=1;exitDx=0;exitDy=0;entryX=0.5;entryY=0;entryDx=0;entryDy=0;" edge="1" parent="1" source="XUkEBKdvpBKk0kElfREn-2" target="XUkEBKdvpBKk0kElfREn-5">
          <mxGeometry width="50" height="50" relative="1" as="geometry">
            <mxPoint x="390" y="300" as="sourcePoint" />
            <mxPoint x="440" y="250" as="targetPoint" />
          </mxGeometry>
        </mxCell>
        <mxCell id="XUkEBKdvpBKk0kElfREn-8" value="Pantalla de configuración de filtros" style="whiteSpace=wrap;html=1;aspect=fixed;" vertex="1" parent="1">
          <mxGeometry x="170" y="400" width="80" height="80" as="geometry" />
        </mxCell>
        <mxCell id="XUkEBKdvpBKk0kElfREn-11" value="Selecciona filtro/s&lt;br&gt;Indicado/s" style="shape=trapezoid;perimeter=trapezoidPerimeter;whiteSpace=wrap;html=1;fixedSize=1;" vertex="1" parent="1">
          <mxGeometry x="274" y="400" width="140" height="80" as="geometry" />
        </mxCell>
        <mxCell id="XUkEBKdvpBKk0kElfREn-12" value="" style="endArrow=classic;html=1;rounded=0;exitX=1;exitY=0.5;exitDx=0;exitDy=0;entryX=0;entryY=0.5;entryDx=0;entryDy=0;" edge="1" parent="1" source="XUkEBKdvpBKk0kElfREn-5" target="XUkEBKdvpBKk0kElfREn-8">
          <mxGeometry width="50" height="50" relative="1" as="geometry">
            <mxPoint x="390" y="300" as="sourcePoint" />
            <mxPoint x="440" y="250" as="targetPoint" />
          </mxGeometry>
        </mxCell>
        <mxCell id="XUkEBKdvpBKk0kElfREn-13" value="" style="endArrow=classic;html=1;rounded=0;exitX=1;exitY=0.5;exitDx=0;exitDy=0;entryX=0;entryY=0.5;entryDx=0;entryDy=0;" edge="1" parent="1" source="XUkEBKdvpBKk0kElfREn-8" target="XUkEBKdvpBKk0kElfREn-11">
          <mxGeometry width="50" height="50" relative="1" as="geometry">
            <mxPoint x="160" y="450" as="sourcePoint" />
            <mxPoint x="210" y="450" as="targetPoint" />
          </mxGeometry>
        </mxCell>
        <mxCell id="XUkEBKdvpBKk0kElfREn-14" value="" style="endArrow=classic;html=1;rounded=0;exitX=0.5;exitY=0;exitDx=0;exitDy=0;entryX=0.5;entryY=1;entryDx=0;entryDy=0;" edge="1" parent="1" source="XUkEBKdvpBKk0kElfREn-11" target="XUkEBKdvpBKk0kElfREn-4">
          <mxGeometry width="50" height="50" relative="1" as="geometry">
            <mxPoint x="170" y="460" as="sourcePoint" />
            <mxPoint x="220" y="460" as="targetPoint" />
          </mxGeometry>
        </mxCell>
        <mxCell id="XUkEBKdvpBKk0kElfREn-16" value="Pantalla en busqueda" style="whiteSpace=wrap;html=1;aspect=fixed;" vertex="1" parent="1">
          <mxGeometry x="400" y="200" width="80" height="80" as="geometry" />
        </mxCell>
        <mxCell id="XUkEBKdvpBKk0kElfREn-17" value="" style="endArrow=classic;html=1;rounded=0;exitX=1;exitY=0.5;exitDx=0;exitDy=0;entryX=0;entryY=0.5;entryDx=0;entryDy=0;" edge="1" parent="1" source="XUkEBKdvpBKk0kElfREn-4" target="XUkEBKdvpBKk0kElfREn-16">
          <mxGeometry width="50" height="50" relative="1" as="geometry">
            <mxPoint x="390" y="300" as="sourcePoint" />
            <mxPoint x="440" y="250" as="targetPoint" />
          </mxGeometry>
        </mxCell>
        <mxCell id="XUkEBKdvpBKk0kElfREn-18" value="Búsqueda encontrada" style="rhombus;whiteSpace=wrap;html=1;" vertex="1" parent="1">
          <mxGeometry x="550" y="200" width="80" height="80" as="geometry" />
        </mxCell>
        <mxCell id="XUkEBKdvpBKk0kElfREn-19" value="Búsqueda no&lt;br&gt;encontrada&amp;nbsp;" style="ellipse;whiteSpace=wrap;html=1;aspect=fixed;" vertex="1" parent="1">
          <mxGeometry x="370" y="80" width="80" height="80" as="geometry" />
        </mxCell>
        <mxCell id="XUkEBKdvpBKk0kElfREn-20" value="Enlaces de los resultados" style="rounded=1;whiteSpace=wrap;html=1;" vertex="1" parent="1">
          <mxGeometry x="680" y="360" width="130" height="80" as="geometry" />
        </mxCell>
        <mxCell id="XUkEBKdvpBKk0kElfREn-25" value="" style="endArrow=classic;html=1;rounded=0;exitX=1;exitY=0.5;exitDx=0;exitDy=0;entryX=0.5;entryY=0;entryDx=0;entryDy=0;" edge="1" parent="1" source="XUkEBKdvpBKk0kElfREn-18" target="XUkEBKdvpBKk0kElfREn-20">
          <mxGeometry relative="1" as="geometry">
            <mxPoint x="360" y="270" as="sourcePoint" />
            <mxPoint x="460" y="270" as="targetPoint" />
            <Array as="points">
              <mxPoint x="745" y="240" />
            </Array>
          </mxGeometry>
        </mxCell>
        <mxCell id="XUkEBKdvpBKk0kElfREn-26" value="&lt;font style=&quot;font-size: 15px;&quot;&gt;&lt;b&gt;Si&lt;/b&gt;&lt;/font&gt;" style="edgeLabel;resizable=0;html=1;;align=center;verticalAlign=middle;" connectable="0" vertex="1" parent="XUkEBKdvpBKk0kElfREn-25">
          <mxGeometry relative="1" as="geometry" />
        </mxCell>
        <mxCell id="XUkEBKdvpBKk0kElfREn-27" value="" style="endArrow=classic;html=1;rounded=0;exitX=0.5;exitY=0;exitDx=0;exitDy=0;entryX=1;entryY=0.5;entryDx=0;entryDy=0;" edge="1" parent="1" source="XUkEBKdvpBKk0kElfREn-18" target="XUkEBKdvpBKk0kElfREn-19">
          <mxGeometry relative="1" as="geometry">
            <mxPoint x="360" y="270" as="sourcePoint" />
            <mxPoint x="460" y="270" as="targetPoint" />
            <Array as="points">
              <mxPoint x="590" y="120" />
            </Array>
          </mxGeometry>
        </mxCell>
        <mxCell id="XUkEBKdvpBKk0kElfREn-28" value="&lt;b&gt;&lt;font style=&quot;font-size: 15px;&quot;&gt;No&lt;/font&gt;&lt;/b&gt;" style="edgeLabel;resizable=0;html=1;;align=center;verticalAlign=middle;" connectable="0" vertex="1" parent="XUkEBKdvpBKk0kElfREn-27">
          <mxGeometry relative="1" as="geometry" />
        </mxCell>
        <mxCell id="XUkEBKdvpBKk0kElfREn-31" value="" style="endArrow=classic;html=1;rounded=0;exitX=1;exitY=0.5;exitDx=0;exitDy=0;entryX=0;entryY=0.5;entryDx=0;entryDy=0;" edge="1" parent="1" source="XUkEBKdvpBKk0kElfREn-16" target="XUkEBKdvpBKk0kElfREn-18">
          <mxGeometry width="50" height="50" relative="1" as="geometry">
            <mxPoint x="390" y="300" as="sourcePoint" />
            <mxPoint x="440" y="250" as="targetPoint" />
          </mxGeometry>
        </mxCell>
        <mxCell id="XUkEBKdvpBKk0kElfREn-32" value="" style="endArrow=classic;html=1;rounded=0;exitX=0;exitY=0.5;exitDx=0;exitDy=0;entryX=1;entryY=0;entryDx=0;entryDy=0;" edge="1" parent="1" source="XUkEBKdvpBKk0kElfREn-19" target="XUkEBKdvpBKk0kElfREn-2">
          <mxGeometry width="50" height="50" relative="1" as="geometry">
            <mxPoint x="390" y="400" as="sourcePoint" />
            <mxPoint x="440" y="350" as="targetPoint" />
          </mxGeometry>
        </mxCell>
      </root>
    </mxGraphModel>
  </diagram>
</mxfile>
